# xmcd
#
# Track frame offsets:
#	150
#	12000
#	35850
#	58875
#	80025
#	103950
#	125550
#	146100
#	165900
#	206400
#	222675
#	240975
#	262200
#	279900
#	309750
#
# Disc length: 4409 seconds
#
# Revision: 0
# Processed by: cddbd v1.5.2PL0 Copyright (c) Steve Scherf et al.
# Submitted via: EasyCDDAExtractor 9.0.0.1
#
DISCID=df11370f
DTITLE=Ozzy Osbourne - Shikokaido Hall Nagoya 30-06-84
DYEAR=1984
DGENRE=Hard Rock
TTITLE0=Carmina Burana
TTITLE1=I Don't Know
TTITLE2=Mr Crowley
TTITLE3=Over The Mountain
TTITLE4=Rock and Roll Rebel
TTITLE5=Bark At The Moon
TTITLE6=Revelation (Mother Earth)
TTITLE7=Steal Away (The Night)
TTITLE8=Suicide Solution
TTITLE9=Journey To The Centre Of Eternity
TTITLE10=Drum Solo
TTITLE11=Flying High Again
TTITLE12=Iron Man
TTITLE13=Crazy Train
TTITLE14=Paranoid
EXTD=
EXTT0=
EXTT1=
EXTT2=
EXTT3=
EXTT4=
EXTT5=
EXTT6=
EXTT7=
EXTT8=
EXTT9=
EXTT10=
EXTT11=
EXTT12=
EXTT13=
EXTT14=
PLAYORDER=
